<?xml version="1.0" encoding="UTF-8"?>
<svg xmlns="http://www.w3.org/2000/svg" version="1.1" xmlns:xlink="http://www.w3.org/1999/xlink" viewBox="0 0 1000 1000">
  <defs>
    <style>
      .cls-1 {
        fill: url(#linear-gradient);
      }
    </style>
    <linearGradient id="linear-gradient" x1="30.7" y1="520.2" x2="886.3" y2="520.2" gradientTransform="translate(0 1000) scale(1 -1)" gradientUnits="userSpaceOnUse">
      <stop offset="0" stop-color="#005f81"/>
      <stop offset="1" stop-color="#7d2a87"/>
    </linearGradient>
  </defs>
  <g>
    <g id="Layer_1">
      <path class="cls-1" d="M51.4,458.8l135.2,104.8v292.4c0,28.8,33.7,44.6,55.8,26.1l171-142.7,189.7,147c32.5,25.2,80.1,8.8,90.3-31L885.2,103.8c6.8-26.8-19.5-50.2-45.3-40.1L64.7,366.7c-38.7,15.1-46.2,66.7-13.3,92.1h0ZM709,292.2v141.8l-33.4,31.2-113-111.8c1.7-6.3,2.7-13,2.7-19.8,0-15.2-4.5-29.2-12.3-41l156-.3h0ZM521.8,331.5c1.2,18.9-14.4,34.5-33.3,33.3-15.6-1-28.2-13.6-29.2-29.2-1.2-18.9,14.4-34.4,33.2-33.3,15.6,1,28.2,13.6,29.2,29.2ZM290.5,707.2v-141.8l33.4-31.2,112.9,111.8c-1.7,6.3-2.7,13-2.7,19.8,0,15.2,4.5,29.2,12.3,41l-156,.3h0ZM477.7,667.9c-1.2-18.9,14.4-34.5,33.3-33.3,15.6,1,28.2,13.6,29.2,29.2,1.2,18.9-14.4,34.4-33.2,33.3-15.6-1-28.2-13.6-29.2-29.2h0ZM708.8,618.7c0,57.1-14.9,88.6-82,87.9h-55.2c8.3-12.5,12.8-27.8,12-44.2-1.9-39.1-34.1-70.4-73.3-71.1-8.6-.2-16.9,1.1-24.6,3.7l-195.1-187.2v-26.7c0-57.1,14.9-88.6,82-87.9h55.2c-8.3,12.5-12.8,27.8-12,44.2,1.9,39.1,34.1,70.4,73.3,71.1,8.6.2,16.9-1.1,24.6-3.6l195.1,187.2v26.7h0Z"/>
    </g>
  </g>
</svg>
